<svg width="51" height="36" viewBox="0 0 51 36" fill="none" xmlns="http://www.w3.org/2000/svg">
<path d="M50.25 10C50.25 4.478 45.7727 0 40.2516 0C34.7305 0 30.2532 4.478 30.2532 10C30.2532 12.252 30.9971 14.328 32.2529 16H20.7468V0H16.7474V16H10.6904C5.19528 16.032 0.75 20.496 0.75 26C0.75 31.504 5.22728 36 10.7484 36C16.2695 36 20.7468 31.522 20.7468 26C20.7468 23.748 20.0029 21.672 18.7471 20H30.2532V36H34.2526V20H40.2856C45.7927 19.98 50.25 15.512 50.25 10ZM16.7474 26C16.7474 29.308 14.0559 32 10.7484 32C7.44092 32 4.74935 29.308 4.74935 26C4.74935 22.692 7.44092 20 10.7484 20C14.0559 20 16.7474 22.692 16.7474 26ZM40.2516 16C36.9442 16 34.2526 13.308 34.2526 10C34.2526 6.692 36.9442 4 40.2516 4C43.5591 4 46.2506 6.692 46.2506 10C46.2506 13.308 43.5591 16 40.2516 16Z" fill="white"/>
</svg>
