<svg width="244" height="34" viewBox="0 0 244 34" fill="none" xmlns="http://www.w3.org/2000/svg">
<g clip-path="url(#clip0_16544_10769)">
<path d="M113.242 20.3464C113.242 13.1888 107.466 7.38337 100.345 7.38337C97.4407 7.38337 94.7629 8.34594 92.6046 9.97465V0.0625L87.4453 0.0691614V20.3897C87.472 27.5274 93.2341 33.3062 100.342 33.3062C107.449 33.3062 113.238 27.5008 113.238 20.3464H113.242ZM92.6079 20.3464C92.6079 16.0598 96.0818 12.5693 100.348 12.5693C104.615 12.5693 108.086 16.0598 108.086 20.3464C108.086 24.633 104.615 28.1236 100.348 28.1236C96.0818 28.1236 92.6079 24.633 92.6079 20.3464Z" fill="#444444"/>
<path d="M154.755 7.5C147.627 7.5 141.852 13.2788 141.852 20.4031C141.852 27.5275 147.63 33.3062 154.755 33.3062C161.879 33.3062 167.658 27.5275 167.658 20.4031C167.658 13.2788 161.879 7.5 154.755 7.5ZM154.755 28.1436C150.485 28.1436 147.014 24.6697 147.014 20.4031C147.014 16.1365 150.488 12.6626 154.755 12.6626C159.021 12.6626 162.495 16.1365 162.495 20.4031C162.495 24.6697 159.021 28.1436 154.755 28.1436Z" fill="#444444"/>
<path d="M127.536 7.5C120.408 7.5 114.633 13.2788 114.633 20.4031C114.633 27.5275 120.412 33.3062 127.536 33.3062C134.66 33.3062 140.439 27.5275 140.439 20.4031C140.439 13.2788 134.66 7.5 127.536 7.5ZM127.536 28.1436C123.266 28.1436 119.795 24.6697 119.795 20.4031C119.795 16.1365 123.269 12.6626 127.536 12.6626C131.803 12.6626 135.276 16.1365 135.276 20.4031C135.276 24.6697 131.803 28.1436 127.536 28.1436Z" fill="#444444"/>
<path d="M73.0203 7.5C65.8926 7.5 60.1172 13.2788 60.1172 20.4031C60.1172 27.5275 65.8959 33.3062 73.0203 33.3062C80.1446 33.3062 85.9234 27.5275 85.9234 20.4031C85.9234 13.2788 80.1446 7.5 73.0203 7.5ZM73.0203 28.1436C68.7503 28.1436 65.2798 24.6697 65.2798 20.4031C65.2798 16.1365 68.7537 12.6626 73.0203 12.6626C77.2869 12.6626 80.7608 16.1365 80.7608 20.4031C80.7608 24.6697 77.2869 28.1436 73.0203 28.1436Z" fill="#444444"/>
<path d="M12.9031 7.5C5.77876 7.5 0 13.2754 0 20.4031C0 27.5308 5.77876 33.3062 12.9031 33.3062C20.0275 33.3062 25.8062 27.5275 25.8062 20.4031C25.8062 13.2788 20.0308 7.5 12.9031 7.5ZM12.9031 28.1436C8.63316 28.1436 5.16258 24.6697 5.16258 20.4031C5.16258 16.1365 8.63649 12.6626 12.9031 12.6626C17.1697 12.6626 20.6436 16.1365 20.6436 20.4031C20.6436 24.6697 17.1697 28.1436 12.9031 28.1436Z" fill="#444444"/>
<path d="M60.1108 7.3242H53.8491V0H48.6666V7.3242H37.2523V0H32.0664V7.3242H25.8047V12.5101H32.0664V33.1904H37.2523V12.5101H48.6666V33.1904H53.8491V12.5101H60.1108V7.3242Z" fill="#444444"/>
<path d="M243.748 12.8164V32.9404H239.062V12.8164H243.748Z" stroke="#444444" stroke-width="0.5"/>
<path d="M243.748 4.79883V9.48438H239.062V4.79883H243.748Z" stroke="#444444" stroke-width="0.5"/>
<path d="M223.11 7.52148C230.079 7.52148 235.73 13.1873 235.757 20.1885V32.9209L231.098 32.9268V30.0977L230.697 30.4004C228.581 31.9975 225.955 32.9414 223.107 32.9414C216.207 32.9414 210.594 27.381 210.464 20.4736V20.2314C210.464 13.2143 216.142 7.52168 223.11 7.52148ZM223.107 12.2012C218.702 12.2012 215.12 15.8043 215.12 20.2275C215.12 24.651 218.701 28.2549 223.107 28.2549C227.513 28.2549 231.098 24.6511 231.098 20.2275C231.097 15.8042 227.513 12.2012 223.107 12.2012Z" stroke="#444444" stroke-width="0.5"/>
<path d="M175.744 33.227L175.714 27.9545L181.047 33.227H188.421L178.222 23.105L187.085 14.1654L183.375 10.5017L175.644 18.2922L175.591 0L170.375 0.0299762L170.535 33.227H175.744Z" fill="#444444"/>
<path d="M197.97 33.1606C195.036 33.1606 192.488 32.0349 190.383 29.8066L194.077 26.1196C195.262 27.3086 196.481 27.8882 197.78 27.8882C198.61 27.8882 199.279 27.6717 199.762 27.242C200.232 26.849 200.465 26.3194 200.465 25.6433C200.465 25.0604 200.275 24.6141 199.885 24.271C199.685 24.0878 199.306 23.8081 198.74 23.435C198.21 23.0853 197.501 22.6723 196.435 22.0994C194.629 21.0969 193.4 20.1343 192.684 19.1551C191.968 18.1226 191.599 16.8436 191.599 15.3747C191.599 13.1632 192.421 11.308 194.043 9.85911C195.649 8.41692 197.72 7.6875 200.198 7.6875C202.923 7.6875 205.461 8.84658 207.746 11.1314L207.866 11.2513L204.212 14.9051L204.099 14.8052C202.743 13.5862 201.487 12.9667 200.372 12.9667C199.629 12.9667 199.036 13.1665 198.556 13.5728C198.093 13.9592 197.877 14.4088 197.877 14.9917C197.877 15.5746 198.063 16.0142 198.446 16.3973C198.903 16.8536 199.839 17.4731 201.224 18.2425L201.747 18.5322C203.602 19.618 204.841 20.6039 205.524 21.5365C206.34 22.569 206.743 23.898 206.743 25.5034C206.743 27.8149 205.927 29.6967 204.315 31.0989C202.69 32.4645 200.551 33.164 197.967 33.164L197.97 33.1606Z" fill="#444444"/>
</g>
<defs>
<clipPath id="clip0_16544_10769">
<rect width="244" height="33.3069" fill="white"/>
</clipPath>
</defs>
</svg>
