<svg width="276" height="41" viewBox="0 0 276 41" fill="none" xmlns="http://www.w3.org/2000/svg">
<g clip-path="url(#clip0_16544_10769)">
<path d="M82.0015 11.0316C73.9621 11.0866 67.4844 17.6418 67.5394 25.6818C67.5944 33.7217 74.1491 40.1999 82.1884 40.1449C90.2278 40.0899 96.7055 33.5348 96.6505 25.4948C96.5955 17.4548 90.0408 10.9766 82.0015 11.0316ZM82.1444 32.6549C78.2402 32.6769 75.0619 29.5423 75.0399 25.6378C75.0179 21.7333 78.1523 18.5547 82.0565 18.5327C85.9607 18.5107 89.139 21.6453 89.172 25.5498C89.194 29.4543 86.0486 32.6329 82.1554 32.6549H82.1444Z" fill="#444444"/>
<path d="M143.994 11.0316C135.954 11.0866 129.477 17.6418 129.532 25.6818C129.587 33.7217 136.141 40.1999 144.181 40.1449C152.22 40.0899 158.698 33.5348 158.643 25.4948C158.588 17.4548 152.033 10.9766 143.994 11.0316ZM144.137 32.6549C140.232 32.6769 137.054 29.5423 137.032 25.6378C137.01 21.7333 140.144 18.5547 144.049 18.5327C147.953 18.5107 151.131 21.6453 151.164 25.5498C151.186 29.4543 148.041 32.6329 144.148 32.6549H144.137Z" fill="#444444"/>
<path d="M174.822 11.0316C166.782 11.0866 160.305 17.6418 160.36 25.6818C160.415 33.7217 166.969 40.1999 175.009 40.1449C183.048 40.0899 189.526 33.5348 189.471 25.4948C189.416 17.4548 182.861 10.9766 174.822 11.0316ZM174.965 32.6549C171.061 32.6769 167.882 29.5423 167.86 25.6378C167.838 21.7333 170.973 18.5547 174.877 18.5327C178.781 18.5107 181.959 21.6453 181.992 25.5498C182.014 29.4543 178.869 32.6329 174.976 32.6549H174.965Z" fill="#444444"/>
<path d="M14.4624 11.0316C6.42304 11.0866 -0.0546413 17.6418 0.000347523 25.6818C0.0553364 33.7217 6.61001 40.1999 14.6494 40.1449C22.6887 40.0899 29.1664 33.5348 29.1114 25.4948C29.0565 17.4548 22.5018 10.9766 14.4624 11.0316ZM14.6054 32.6549C10.7012 32.6769 7.52282 29.5423 7.50083 25.6378C7.47883 21.7333 10.6132 18.5547 14.5174 18.5327C18.4216 18.5107 21.6 21.6453 21.633 25.5498C21.655 29.4543 18.5096 32.6329 14.6164 32.6549H14.6054Z" fill="#444444"/>
<path d="M68.5169 10.9766L60.8405 11.0095L60.7855 2.68359L53.351 2.73859L53.406 11.0535L43.2001 11.1195L43.1451 2.79358L35.7106 2.84857L35.7656 11.1745L28.0781 11.2075L28.1331 18.6976L35.8096 18.6646L35.9415 40.1449L43.387 40.1009L43.244 18.6206L53.45 18.5546L53.5929 40.0349L61.0274 39.9799L60.8845 18.5106L68.5609 18.4776L68.5169 10.9766Z" fill="#444444"/>
<path d="M113.17 11.0317C110.498 11.0536 108.012 11.7906 105.868 13.0554L105.802 2.80469L98.3672 2.84868L98.6091 40.145L106.044 40.101V38.2202C108.188 39.4631 110.696 40.167 113.357 40.145C121.397 40.09 127.874 33.5348 127.819 25.4948C127.764 17.4548 121.21 10.9767 113.17 11.0317ZM113.313 32.6549C109.409 32.6769 106.231 29.5423 106.209 25.6378C106.187 21.7333 109.321 18.5547 113.225 18.5327C117.129 18.5107 120.308 21.6453 120.341 25.5498C120.363 29.4543 117.217 32.6329 113.324 32.6549H113.313Z" fill="#444444"/>
<path d="M198.908 40.1443L198.864 32.5662L206.529 40.1443H217.131L202.471 25.5931L211.786 16.1673L206.452 10.899L198.765 18.675L198.688 5.17969L191.188 5.22368L191.418 40.1443H198.908Z" fill="#444444"/>
<path d="M228.116 22.9544C226.247 21.9205 225.587 21.3706 225.345 21.1286C225.07 20.8537 224.949 20.5457 224.949 20.1388C224.949 19.7318 225.092 19.4458 225.422 19.1709C225.796 18.8519 226.269 18.6979 226.885 18.6979C227.886 18.6979 229.051 19.2919 230.349 20.4577L230.954 20.9967L235.749 16.2013L235.133 15.5853C232.593 13.0447 229.755 11.7578 226.698 11.7578C223.926 11.7578 221.584 12.5827 219.758 14.2215C217.9 15.8823 216.954 18.016 216.954 20.5457C216.954 22.2395 217.383 23.7133 218.229 24.9342C219.043 26.045 220.407 27.1229 222.409 28.2337C223.409 28.7727 224.201 29.2236 224.784 29.6086C225.466 30.0595 225.774 30.3015 225.917 30.4335C226.181 30.6644 226.291 30.9504 226.291 31.3574C226.291 31.8633 226.137 32.2262 225.785 32.5232C225.4 32.8642 224.861 33.0291 224.157 33.0291C222.816 33.0291 221.54 32.3142 220.275 30.8624L215.414 35.7128C217.845 38.5285 220.847 39.9583 224.355 39.9583C227.237 39.9583 229.634 39.1774 231.493 37.6156C233.351 35.9988 234.286 33.843 234.286 31.2034C234.286 29.3556 233.813 27.8158 232.868 26.6169C232.021 25.4621 230.47 24.2632 228.116 22.9434V22.9544Z" fill="#444444"/>
<path d="M257.845 11.0544V13.1772C255.613 11.8023 252.973 11.0214 250.158 11.0434C242.118 11.0984 235.641 17.6536 235.696 25.6936C235.751 33.7336 242.305 40.2118 250.345 40.1568C253.094 40.1348 255.657 39.3649 257.845 38.023V40.1568H265.5V11.0544H257.845ZM250.301 32.6557C246.396 32.6777 243.218 29.5431 243.196 25.6386C243.174 21.7341 246.309 18.5555 250.213 18.5335C254.117 18.5115 257.295 21.6461 257.328 25.5506C257.35 29.4551 254.205 32.6337 250.312 32.6557H250.301Z" stroke="#444444" stroke-miterlimit="10"/>
<path d="M275.451 11.0527H267.797V40.1441H275.451V11.0527Z" stroke="#444444" stroke-miterlimit="10"/>
<path d="M275.451 0.550781H267.797V8.20582H275.451V0.550781Z" stroke="#444444" stroke-miterlimit="10"/>
</g>
<defs>
<clipPath id="clip0_16544_10769">
<rect width="276" height="40.6949" fill="white"/>
</clipPath>
</defs>
</svg>
