<svg width="41" height="31" viewBox="0 0 41 31" fill="none" xmlns="http://www.w3.org/2000/svg">
<path d="M41 8.60677C41 4.0051 37.2915 0.273438 32.7185 0.273438C28.1455 0.273438 24.437 4.0051 24.437 8.60677C24.437 10.4834 25.0532 12.2134 26.0933 13.6068H16.563V0.273438H13.2504V13.6068H8.23346C3.68195 13.6334 0 17.3534 0 21.9401C0 26.5268 3.70845 30.2734 8.28149 30.2734C12.8545 30.2734 16.563 26.5418 16.563 21.9401C16.563 20.0634 15.9468 18.3334 14.9067 16.9401H24.437V30.2734H27.7496V16.9401H32.7467C37.3081 16.9234 41 13.2001 41 8.60677ZM13.2504 21.9401C13.2504 24.6968 11.021 26.9401 8.28149 26.9401C5.54197 26.9401 3.3126 24.6968 3.3126 21.9401C3.3126 19.1834 5.54197 16.9401 8.28149 16.9401C11.021 16.9401 13.2504 19.1834 13.2504 21.9401ZM32.7185 13.6068C29.979 13.6068 27.7496 11.3634 27.7496 8.60677C27.7496 5.8501 29.979 3.60677 32.7185 3.60677C35.458 3.60677 37.6874 5.8501 37.6874 8.60677C37.6874 11.3634 35.458 13.6068 32.7185 13.6068Z" fill="#444444"/>
</svg>
