<svg width="169" height="48" viewBox="0 0 169 48" fill="none" xmlns="http://www.w3.org/2000/svg">
<g clip-path="url(#clip0_18302_169)">
<path d="M156.29 13.5319V15.0333C154.69 14.0639 152.809 13.5076 150.794 13.5197C145.046 13.5562 140.417 18.2014 140.453 23.8938C140.49 29.5862 145.181 34.1707 150.929 34.1343C152.895 34.1221 154.73 33.5706 156.292 32.6231V34.1343H161.764V13.5319H156.292H156.29ZM150.893 28.8306C148.103 28.8476 145.826 26.6222 145.809 23.8598C145.792 21.0974 148.039 18.8428 150.829 18.8258C153.618 18.8088 155.895 21.0342 155.912 23.7966C155.929 26.559 153.682 28.8136 150.893 28.8306Z" stroke="#444444" stroke-miterlimit="10"/>
<path d="M168.877 13.5312H163.406V34.1336H168.877V13.5312Z" stroke="#444444" stroke-miterlimit="10"/>
<path d="M168.877 6.09766H163.406V11.5155H168.877V6.09766Z" stroke="#444444" stroke-miterlimit="10"/>
<path d="M75.0434 22.2884C73.7039 21.5571 73.2304 21.1708 73.0586 20.9935C72.8624 20.7991 72.7765 20.5829 72.7765 20.2913C72.7765 19.9998 72.8795 19.803 73.1126 19.6062C73.3776 19.3827 73.7186 19.2734 74.1553 19.2734C74.8717 19.2734 75.7058 19.6912 76.6357 20.5173L77.0675 20.9011L80.4949 17.5071L80.0557 17.0722C78.2402 15.2744 76.2112 14.3633 74.0253 14.3633C72.0405 14.3633 70.3722 14.9488 69.0645 16.1053C67.7323 17.2836 67.0552 18.7923 67.0552 20.5853C67.0552 21.7855 67.3594 22.8253 67.9703 23.6951C68.5517 24.4798 69.5257 25.2451 70.961 26.0347C71.6749 26.4137 72.2466 26.7393 72.6563 27.0065C73.1445 27.3248 73.3628 27.4973 73.4683 27.5945C73.6548 27.7597 73.7382 27.9613 73.7382 28.248C73.7382 28.6052 73.6254 28.8603 73.3751 29.0765C73.0979 29.3146 72.7151 29.4312 72.2097 29.4312C71.248 29.4312 70.3378 28.9283 69.4325 27.8957L65.9609 31.3335C67.6955 33.3282 69.8422 34.3388 72.3594 34.3388C74.4203 34.3388 76.1327 33.7825 77.46 32.677C78.7849 31.5352 79.4571 30.007 79.4571 28.1363C79.4571 26.8267 79.1161 25.7335 78.4414 24.8856C77.8354 24.0668 76.724 23.2189 75.041 22.286L75.0434 22.2884Z" fill="#444444"/>
<path d="M39.6338 13.6178V15.1193C38.0342 14.1499 36.1524 13.5935 34.1382 13.6057C28.3899 13.6421 23.7603 18.2874 23.7971 23.9797C23.8339 29.6721 28.5248 34.2566 34.2731 34.2202C36.2383 34.208 38.0734 33.6565 39.6362 32.709V34.2202H45.1073V13.6178H39.6362H39.6338ZM34.2388 28.9165C31.4492 28.9335 29.1725 26.7081 29.1553 23.9457C29.1381 21.1834 31.3855 18.9288 34.175 18.9117C36.9645 18.8947 39.2412 21.1202 39.2584 23.8826C39.2756 26.6449 37.0283 28.8995 34.2388 28.9165Z" fill="#444444"/>
<path d="M65.9408 15.8312C64.1474 14.4245 61.878 13.5887 59.4123 13.6057C57.4472 13.6179 55.612 14.1694 54.0492 15.1169V13.6057H48.5781V34.2081H54.0492V24.6115L54.0615 24.0041C54.0443 21.2417 56.6572 18.9264 59.4467 18.9094C60.6121 18.9021 61.6866 19.286 62.5453 19.9371L65.9408 15.8312Z" fill="#444444"/>
<path d="M5.47108 47.8134V32.7066C7.0707 33.676 8.95246 34.2324 10.9667 34.2202C16.715 34.1838 21.3446 29.5385 21.3078 23.8461C21.271 18.1538 16.5801 13.5692 10.8318 13.6057C8.86659 13.6178 7.03144 14.1693 5.46863 15.1168V13.6057H0V47.8134H5.47108ZM10.8661 18.9093C13.6556 18.8923 15.9324 21.1178 15.9496 23.8801C15.9667 26.6425 13.7194 28.8971 10.9299 28.9141C8.14038 28.9311 5.86363 26.7057 5.84645 23.9433C5.82928 21.1809 8.07659 18.9263 10.8661 18.9093Z" fill="#444444"/>
<path d="M83.7969 32.6966V34.2077H89.268V0H83.7969V32.6966Z" fill="#444444"/>
<path d="M131.587 13.4355V23.8825C131.587 26.6327 129.335 28.863 126.557 28.863C123.78 28.863 121.528 26.6327 121.528 23.8825V13.4355H116.008V23.8825C116.008 29.6526 120.731 34.3295 126.557 34.3295C128.378 34.3295 130.093 33.8727 131.587 33.0685V37.4879C131.587 40.2381 129.335 42.4684 126.557 42.4684C123.78 42.4684 121.528 40.2381 121.528 37.4879H116.008C116.008 43.258 120.731 47.9348 126.557 47.9348C132.384 47.9348 137.107 43.258 137.107 37.4879V13.4355H131.587Z" fill="#444444"/>
<path d="M113.19 23.8821C113.19 18.18 108.521 13.5566 102.763 13.5566C97.0048 13.5566 92.3359 18.18 92.3359 23.8821C92.3359 29.5842 97.0048 34.2076 102.763 34.2076C105.758 34.2076 108.46 32.9564 110.361 30.952L110.491 30.8063L105.942 27.7426C105.076 28.4423 103.97 28.8627 102.763 28.8627C99.9856 28.8627 97.7334 26.6323 97.7334 23.8821H113.19ZM102.79 17.9371C104.181 17.9274 105.435 18.4497 106.35 19.3292C106.585 19.5551 106.794 19.8078 106.98 20.0775H98.5357C99.4483 18.7558 101.043 17.9468 102.79 17.9346V17.9371Z" fill="#444444"/>
</g>
<defs>
<clipPath id="clip0_18302_169">
<rect width="169" height="47.9345" fill="white"/>
</clipPath>
</defs>
</svg>
